<svg xmlns="http://www.w3.org/2000/svg" data-name="Слой 1" viewBox="0 0 128 160" x="0px" y="0px"><path d="M88.6,128H39.4a2,2,0,0,1-1.42-.59c-.74-.74-1.66-2.69-.37-5.26.75-1.51,2.62-2.06,7.15-3.27,3.85-1,8.64-2.31,11.1-4.28,3.64-2.91,2.91-13.19-1.42-20-6.36-10-15.07-23.69-15.07-39.45,0-24.46,3.92-53.13,4-53.42A2,2,0,0,1,45.3,0H82.7a2,2,0,0,1,2,1.73c0,.29,4,29,4,53.42,0,15.77-8.71,29.46-15.07,39.45-4.33,6.81-5.06,17.09-1.42,20,2.46,2,7.25,3.25,11.1,4.28,4.53,1.21,6.4,1.77,7.15,3.27,1.28,2.57.37,4.52-.37,5.26A2,2,0,0,1,88.6,128ZM87,124.79Zm-46.06,0Zm.57-.79H86.46c-1-.38-2.83-.87-4.25-1.26-4.21-1.13-9.45-2.53-12.56-5-5.89-4.71-4.57-17.23.55-25.27,6.1-9.58,14.45-22.71,14.45-37.31,0-20.75-2.86-44.61-3.69-51.14H47.06c-.83,6.53-3.69,30.39-3.69,51.14,0,14.6,8.35,27.72,14.45,37.31,5.12,8,6.44,20.56.55,25.27-3.12,2.49-8.36,3.9-12.56,5C44.37,123.13,42.54,123.62,41.54,124Z"/><path d="M84,20H45a2,2,0,0,1,0-4H84a2,2,0,0,1,0,4Z"/></svg>