<svg xmlns="http://www.w3.org/2000/svg" version="1.1" xmlns:xlink="http://www.w3.org/1999/xlink" xmlns:svgjs="http://svgjs.com/svgjs" viewBox="0 0 48 48" width="48" height="48"><title>Exported from Streamline App (https://app.streamlineicons.com)</title><g transform="matrix(2,0,0,2,0,0)"><path d="M 17.25,9.75h2.1c2.07-0.079,3.814,1.53,3.9,3.6v1.8c-0.086,2.07-1.83,3.679-3.9,3.6h-2.1 " stroke="#000000" fill="none" stroke-width="1.5" stroke-linecap="round" stroke-linejoin="round"></path><path d="M 17.25,8.256v13.6 c0.012,0.758-0.592,1.382-1.35,1.394c0,0,0,0,0,0H5.1c-0.757-0.013-1.361-0.636-1.35-1.393v-12.4 " stroke="#000000" fill="none" stroke-width="1.5" stroke-linecap="round" stroke-linejoin="round"></path><path d="M 8.25,14.899v4.178 " stroke="#000000" fill="none" stroke-width="1.5" stroke-linecap="round" stroke-linejoin="round"></path><path d="M 12.75,12.81 v6.267 " stroke="#000000" fill="none" stroke-width="1.5" stroke-linecap="round" stroke-linejoin="round"></path><path d="M 19.365,5.1c-0.526-1.82-2.428-2.869-4.248-2.343c-0.338,0.098-0.66,0.247-0.952,0.443 c-0.882-2.054-3.262-3.003-5.316-2.121C7.761,1.547,6.932,2.468,6.581,3.6C5.227,2.275,3.055,2.298,1.729,3.652 S0.427,7.178,1.781,8.504c0.535,0.524,1.228,0.858,1.971,0.952h0.006c0.042,1.861,1.584,3.335,3.445,3.293 c0.062-0.001,0.125-0.005,0.187-0.009c1.144-0.126,2.152-0.811,2.69-1.829c0.228-0.399,0.368-0.842,0.41-1.3 c0.065-0.772,0.713-1.364,1.488-1.359c1.743,0,3.705,0.007,5.278,0c1.17,0.02,2.154-0.875,2.244-2.042 C19.514,5.835,19.469,5.46,19.365,5.1z" stroke="#000000" fill="none" stroke-width="1.5" stroke-linecap="round" stroke-linejoin="round"></path></g></svg>